<?xml version="1.0" encoding="UTF-8"?>
<svg xmlns="http://www.w3.org/2000/svg" width="32" height="32" viewBox="0 0 32 32">
  <path d="M24 8C24 8 20 8 16 8C12 8 8 12 8 16C8 20 12 24 16 24C20 24 24 24 24 24" 
        stroke="#87CEEB" 
        stroke-width="2" 
        fill="none"
        stroke-linecap="round"
        stroke-linejoin="round"/>
  <path d="M22 6C22 6 18 6 14 6C10 6 6 10 6 14C6 18 10 22 14 22C18 22 22 22 22 22" 
        stroke="#87CEEB" 
        stroke-width="0.5" 
        fill="none"
        stroke-linecap="round"
        stroke-linejoin="round"/>
  <path d="M26 10C26 10 22 10 18 10C14 10 10 14 10 18C10 22 14 26 18 26C22 26 26 26 26 26" 
        stroke="#87CEEB" 
        stroke-width="0.5" 
        fill="none"
        stroke-linecap="round"
        stroke-linejoin="round"/>
</svg> 